<svg width="375" height="145" viewBox="0 0 375 145" fill="none" xmlns="http://www.w3.org/2000/svg">
<rect width="375" height="125" fill="#2C2D2E"/>
<path fill-rule="evenodd" clip-rule="evenodd" d="M205.572 46.5714C211.252 46.5714 215.858 41.9663 215.858 36.2857C215.858 30.6051 211.252 26 205.572 26C199.891 26 195.286 30.6051 195.286 36.2857C195.286 41.9663 199.891 46.5714 205.572 46.5714ZM173.857 46.5714L202.501 80.9436L216.715 63.7143L245.001 98H188.429L131 98L173.857 46.5714Z" fill="white" fill-opacity="0.1"/>
<rect x="323" y="105" width="40" height="40" rx="20" fill="white"/>
<path fill-rule="evenodd" clip-rule="evenodd" d="M342 126C342 127.105 342.895 128 344 128C345.105 128 346 127.105 346 126C346 124.895 345.105 124 344 124C342.895 124 342 124.895 342 126ZM344 122C341.791 122 340 123.791 340 126C340 128.209 341.791 130 344 130C346.209 130 348 128.209 348 126C348 123.791 346.209 122 344 122Z" fill="black"/>
<path d="M335 124C334.448 124 334 124.448 334 125V131C334 132.657 335.343 134 337 134H351C352.657 134 354 132.657 354 131V122C354 120.343 352.657 119 351 119H349L348.553 118.106C348.214 117.428 347.521 117 346.764 117H342C341.448 117 341 117.448 341 118C341 118.552 341.448 119 342 119L346.764 119L347.211 119.894C347.55 120.572 348.242 121 349 121H351C351.552 121 352 121.448 352 122V131C352 131.552 351.552 132 351 132H337C336.448 132 336 131.552 336 131V125C336 124.448 335.552 124 335 124Z" fill="black"/>
<path fill-rule="evenodd" clip-rule="evenodd" d="M335 114C335.552 114 336 114.448 336 115V117H338C338.552 117 339 117.448 339 118C339 118.552 338.552 119 338 119H336V121C336 121.552 335.552 122 335 122C334.448 122 334 121.552 334 121V119H332C331.448 119 331 118.552 331 118C331 117.448 331.448 117 332 117H334V115C334 114.448 334.448 114 335 114Z" fill="black"/>
</svg>
