<svg width="40" height="40" viewBox="0 0 40 40" fill="none" xmlns="http://www.w3.org/2000/svg">
<rect width="40" height="40" rx="20" fill="white"/>
<path fill-rule="evenodd" clip-rule="evenodd" d="M19 21C19 22.1046 19.8954 23 21 23C22.1046 23 23 22.1046 23 21C23 19.8954 22.1046 19 21 19C19.8954 19 19 19.8954 19 21ZM21 17C18.7909 17 17 18.7909 17 21C17 23.2091 18.7909 25 21 25C23.2091 25 25 23.2091 25 21C25 18.7909 23.2091 17 21 17Z" fill="black"/>
<path d="M12 19C11.4477 19 11 19.4477 11 20V26C11 27.6569 12.3431 29 14 29H28C29.6569 29 31 27.6569 31 26V17C31 15.3431 29.6569 14 28 14H26L25.5528 13.1056C25.214 12.428 24.5215 12 23.7639 12H19C18.4477 12 18 12.4477 18 13C18 13.5523 18.4477 14 19 14L23.7639 14L24.2111 14.8944C24.5499 15.572 25.2425 16 26 16H28C28.5523 16 29 16.4477 29 17V26C29 26.5523 28.5523 27 28 27H14C13.4477 27 13 26.5523 13 26V20C13 19.4477 12.5523 19 12 19Z" fill="black"/>
<path fill-rule="evenodd" clip-rule="evenodd" d="M12 9C12.5523 9 13 9.44772 13 10V12H15C15.5523 12 16 12.4477 16 13C16 13.5523 15.5523 14 15 14H13V16C13 16.5523 12.5523 17 12 17C11.4477 17 11 16.5523 11 16V14H9C8.44772 14 8 13.5523 8 13C8 12.4477 8.44772 12 9 12H11V10C11 9.44772 11.4477 9 12 9Z" fill="black"/>
</svg>
