<svg width="24" height="24" viewBox="0 0 24 24" fill="none" xmlns="http://www.w3.org/2000/svg">
<path d="M19 17C19 18.8856 19 19.8284 18.4142 20.4142C17.8284 21 16.8856 21 15 21L9 21C7.11438 21 6.17157 21 5.58578 20.4142C5 19.8284 5 18.8856 5 17L5 7C5 5.11438 5 4.17157 5.58579 3.58579C6.17157 3 7.11438 3 9 3L15 3C16.8856 3 17.8284 3 18.4142 3.58579C19 4.17158 19 5.11438 19 7L19 17Z" stroke="#00D959" stroke-width="2"/>
<path d="M9 7L15 7" stroke="#00D959" stroke-width="2" stroke-linecap="round"/>
<path d="M9 11L15 11" stroke="#00D959" stroke-width="2" stroke-linecap="round"/>
<path d="M9 15H12" stroke="#00D959" stroke-width="2" stroke-linecap="round"/>
</svg>
