<svg width="24" height="24" viewBox="0 0 24 24" fill="none" xmlns="http://www.w3.org/2000/svg">
<path d="M12 21C16.9706 21 21 16.9706 21 12C21 7.02944 16.9706 3 12 3C7.02944 3 3 7.02944 3 12C3 16.9706 7.02944 21 12 21Z" stroke="#00D959" stroke-width="2" stroke-linecap="round" stroke-linejoin="round"/>
<path d="M15 8.99981C14.3597 8.35964 13.4914 7.99998 12.5859 7.99991L11.1471 7.99981C10.6482 8.0001 10.1651 8.14493 9.78045 8.40945C9.39582 8.67398 9.1337 9.04172 9.03904 9.44959C8.94438 9.85747 9.02309 10.2801 9.26166 10.6449C9.50022 11.0097 9.88379 11.2941 10.3466 11.4491L13.6494 12.5491C14.1133 12.7037 14.4979 12.9879 14.7373 13.3531C14.9766 13.7182 15.0557 14.1414 14.961 14.5499C14.8662 14.9584 14.6035 15.3266 14.2181 15.5912C13.8326 15.8558 13.3485 16.0003 12.8489 15.9998L11.4141 15.9997C10.5086 15.9996 9.6403 15.64 9 14.9998M12 7V6M12 17.9998V16.9998" stroke="#00D959" stroke-width="2" stroke-linecap="round" stroke-linejoin="round"/>
</svg>
