<svg width="24" height="24" viewBox="0 0 24 24" fill="none" xmlns="http://www.w3.org/2000/svg">
<path fill-rule="evenodd" clip-rule="evenodd" d="M9.30334 5L9.375 5H10C10.5523 5 11 5.44772 11 6C11 6.55229 10.5523 7 10 7H9.375C7.8439 7 6.797 7.00216 6.0118 7.10862C5.25622 7.21106 4.89403 7.39311 4.64366 7.64559L3.9336 6.94144L4.64366 7.64559C4.39214 7.89922 4.21005 8.26786 4.10793 9.03379C4.00209 9.82762 4 10.8853 4 12.4286L4 14.5714C4 16.1147 4.00209 17.1724 4.10793 17.9662C4.21005 18.7321 4.39214 19.1008 4.64366 19.3544C4.89403 19.6069 5.25622 19.7889 6.0118 19.8914C6.797 19.9978 7.8439 20 9.375 20H13.625C15.1561 20 16.203 19.9978 16.9882 19.8914C17.7438 19.7889 18.106 19.6069 18.3563 19.3544C18.6079 19.1008 18.79 18.7321 18.8921 17.9662C18.9979 17.1724 19 16.1147 19 14.5714V13C19 12.4477 19.4477 12 20 12C20.5523 12 21 12.4477 21 13V14.5714V14.6422C21 16.0972 21.0001 17.289 20.8745 18.2305C20.7432 19.2152 20.4585 20.0749 19.7765 20.7627C19.0932 21.4517 18.2373 21.7403 17.2569 21.8733C16.3216 22.0001 15.1383 22 13.6967 22H13.625H9.375H9.30333C7.86173 22 6.67844 22.0001 5.7431 21.8733C4.76268 21.7403 3.90677 21.4517 3.22354 20.7627C2.54146 20.0749 2.25675 19.2152 2.12547 18.2305C1.99994 17.289 1.99997 16.0972 2 14.6422L2 14.5714L2 12.4286L2 12.3578C1.99997 10.9028 1.99994 9.71101 2.12547 8.76947C2.25675 7.78481 2.54146 6.92511 3.22354 6.2373L3.22354 6.2373C3.90677 5.54834 4.76268 5.25967 5.7431 5.12675C6.67844 4.99994 7.86173 4.99997 9.30334 5Z" fill="#00D959"/>
<path d="M13.4338 14.3732L20.3926 6.41414C21.1736 5.63311 21.1736 4.36681 20.3926 3.58577C19.6116 2.80475 18.3453 2.80474 17.5642 3.58577L10.6054 11.5447L10 14.9785L13.4338 14.3732Z" stroke="#00D959" stroke-width="2" stroke-linecap="round" stroke-linejoin="round"/>
</svg>
