<svg width="24" height="24" viewBox="0 0 24 24" fill="none" xmlns="http://www.w3.org/2000/svg">
<path d="M5 21C4.05719 21 3.58579 21 3.29289 20.7071C3 20.4142 3 19.9428 3 19L3 15C3 14.0572 3 13.5858 3.29289 13.2929C3.58579 13 4.05719 13 5 13V13C5.94281 13 6.41421 13 6.70711 13.2929C7 13.5858 7 14.0572 7 15L7 19C7 19.9428 7 20.4142 6.70711 20.7071C6.41421 21 5.94281 21 5 21V21Z" stroke="#00D959" stroke-width="2"/>
<path d="M12 21C11.0572 21 10.5858 21 10.2929 20.7071C10 20.4142 10 19.9428 10 19L10 5C10 4.05719 10 3.58579 10.2929 3.29289C10.5858 3 11.0572 3 12 3V3C12.9428 3 13.4142 3 13.7071 3.29289C14 3.58579 14 4.05719 14 5L14 19C14 19.9428 14 20.4142 13.7071 20.7071C13.4142 21 12.9428 21 12 21V21Z" stroke="#00D959" stroke-width="2"/>
<path d="M19 21C18.0572 21 17.5858 21 17.2929 20.7071C17 20.4142 17 19.9428 17 19L17 10C17 9.05719 17 8.58579 17.2929 8.29289C17.5858 8 18.0572 8 19 8V8C19.9428 8 20.4142 8 20.7071 8.29289C21 8.58579 21 9.05719 21 10L21 19C21 19.9428 21 20.4142 20.7071 20.7071C20.4142 21 19.9428 21 19 21V21Z" stroke="#00D959" stroke-width="2"/>
</svg>
