<svg width="25" height="24" viewBox="0 0 25 24" fill="none" xmlns="http://www.w3.org/2000/svg">
<path d="M20.7497 7.5V3H16.7493L10.75 10H9.25C6.21243 10 3.75 12.4624 3.75 15.5C3.75 18.5376 6.21243 21 9.25 21C12.2876 21 14.75 18.5376 14.75 15.5C14.75 14.3755 14.3292 13.3711 13.75 12.5L15.2497 11H17.7497V7.5H20.7497Z" stroke="#77777B" stroke-width="2" stroke-linecap="round" stroke-linejoin="round"/>
<path d="M10.75 16C10.75 17.1046 9.85457 18 8.75 18C7.64543 18 6.75 17.1046 6.75 16C6.75 14.8954 7.64543 14 8.75 14C9.85457 14 10.75 14.8954 10.75 16Z" fill="#77777B"/>
</svg>
