<svg width="25" height="24" viewBox="0 0 25 24" fill="none" xmlns="http://www.w3.org/2000/svg">
<path fill-rule="evenodd" clip-rule="evenodd" d="M11.75 13C11.75 14.1046 12.6454 15 13.75 15C14.8546 15 15.75 14.1046 15.75 13C15.75 11.8954 14.8546 11 13.75 11C12.6454 11 11.75 11.8954 11.75 13ZM13.75 9C11.5409 9 9.75 10.7909 9.75 13C9.75 15.2091 11.5409 17 13.75 17C15.9591 17 17.75 15.2091 17.75 13C17.75 10.7909 15.9591 9 13.75 9Z" fill="white"/>
<path d="M4.75 11C4.19772 11 3.75 11.4477 3.75 12V18C3.75 19.6569 5.09315 21 6.75 21H20.75C22.4069 21 23.75 19.6569 23.75 18V9C23.75 7.34315 22.4069 6 20.75 6H18.75L18.3028 5.10557C17.964 4.428 17.2715 4 16.5139 4H11.75C11.1977 4 10.75 4.44772 10.75 5C10.75 5.55228 11.1977 6 11.75 6L16.5139 6L16.9611 6.89443C17.2999 7.572 17.9925 8 18.75 8H20.75C21.3023 8 21.75 8.44772 21.75 9V18C21.75 18.5523 21.3023 19 20.75 19H6.75C6.19772 19 5.75 18.5523 5.75 18V12C5.75 11.4477 5.30228 11 4.75 11Z" fill="white"/>
<path fill-rule="evenodd" clip-rule="evenodd" d="M4.75 1C5.30229 1 5.75 1.44772 5.75 2V4H7.75C8.30229 4 8.75 4.44772 8.75 5C8.75 5.55229 8.30229 6 7.75 6H5.75V8C5.75 8.55229 5.30229 9 4.75 9C4.19772 9 3.75 8.55229 3.75 8V6H1.75C1.19772 6 0.75 5.55229 0.75 5C0.75 4.44772 1.19772 4 1.75 4H3.75V2C3.75 1.44772 4.19772 1 4.75 1Z" fill="white"/>
</svg>
