<svg width="56" height="56" viewBox="0 0 56 56" fill="none" xmlns="http://www.w3.org/2000/svg">
<rect x="19" y="19" width="18" height="18" rx="3" stroke="white" stroke-opacity="0.3" stroke-width="2"/>
<rect x="18" y="18" width="20" height="20" rx="4" fill="#1380FF"/>
<path d="M32.9059 23.6674C33.2934 23.2948 33.9062 23.2952 34.2932 23.6684L34.3 23.675C34.6722 24.0339 34.683 24.6265 34.3241 24.9987C34.3159 25.0072 34.3075 25.0156 34.2989 25.0238L26.6933 32.3337C26.3061 32.7058 25.6941 32.7057 25.3071 32.3334L21.6983 28.8618C21.3283 28.5058 21.3169 27.9172 21.6729 27.5471C21.6817 27.5379 21.6908 27.5288 21.7 27.52L21.7074 27.513C22.0945 27.1424 22.705 27.1429 23.0915 27.5142L26 30.3077L32.9059 23.6674Z" fill="white"/>
</svg>
