<svg width="40" height="40" viewBox="0 0 40 40" fill="none" xmlns="http://www.w3.org/2000/svg">
<path d="M24 25C24 26.8856 24 27.8284 23.4142 28.4142C22.8284 29 21.8856 29 20 29L16 29C14.1144 29 13.1716 29 12.5858 28.4142C12 27.8284 12 26.8856 12 25L12 19C12 17.1144 12 16.1716 12.5858 15.5858C13.1716 15 14.1144 15 16 15L20 15C21.8856 15 22.8284 15 23.4142 15.5858C24 16.1716 24 17.1144 24 19L24 25Z" stroke="#0075FF" stroke-width="2"/>
<path d="M16 16L16 15C16 13.1144 16 12.1716 16.5858 11.5858C17.1716 11 18.1144 11 20 11L24 11C25.8856 11 26.8284 11 27.4142 11.5858C28 12.1716 28 13.1144 28 15L28 21C28 22.8856 28 23.8284 27.4142 24.4142C27.4142 24.4142 27.4142 24.4142 27.4142 24.4142C26.8284 25 25.8856 25 24 25V25" stroke="#0075FF" stroke-width="2"/>
</svg>
