<svg width="40" height="40" viewBox="0 0 40 40" fill="none" xmlns="http://www.w3.org/2000/svg">
<path d="M9.16699 1.66669C7.78628 1.66669 6.66699 2.78597 6.66699 4.16669V35.8334C6.66699 37.2141 7.78628 38.3334 9.16699 38.3334H30.8337C32.2144 38.3334 33.3337 37.2141 33.3337 35.8334V11.6667L23.3337 1.66669H9.16699Z" fill="#4E8DF5"/>
<path d="M9.16699 38.3334C7.78628 38.3334 6.66699 37.2141 6.66699 35.8334V35.4167C6.66699 36.7974 7.78628 37.9167 9.16699 37.9167H30.8337C32.2144 37.9167 33.3337 36.7974 33.3337 35.4167V35.8334C33.3337 37.2141 32.2144 38.3334 30.8337 38.3334H9.16699Z" fill="#417EE9"/>
<path d="M9.16699 1.66669C7.78628 1.66669 6.66699 2.78598 6.66699 4.16669V4.58335C6.66699 3.20264 7.78628 2.08335 9.16699 2.08335H23.7503L23.3337 1.66669H9.16699Z" fill="#639AF6"/>
<path d="M33.3332 20.2083V11.6666L31.8749 10.2083H24.8421C24.2853 10.2083 24.0064 10.8815 24.4001 11.2753L33.3332 20.2083Z" fill="url(#paint0_linear_3576_80060)"/>
<path d="M23.333 1.66669L33.333 11.6667H25.833C24.4523 11.6667 23.333 10.5474 23.333 9.16669V1.66669Z" fill="#A6C5FA"/>
<path d="M26.6663 20H13.333V21.6667H26.6663V20Z" fill="white"/>
<path d="M26.6663 23.3333H13.333V25H26.6663V23.3333Z" fill="white"/>
<path d="M13.333 26.6667H26.6663V28.3333H13.333V26.6667Z" fill="white"/>
<path d="M23.333 30H13.333V31.6667H23.333V30Z" fill="white"/>
<defs>
<linearGradient id="paint0_linear_3576_80060" x1="28.3332" y1="20.2083" x2="28.3332" y2="9.99998" gradientUnits="userSpaceOnUse">
<stop stop-color="#4E8DF5"/>
<stop offset="1" stop-color="#3D6ACD"/>
</linearGradient>
</defs>
</svg>
