<svg width="24" height="24" viewBox="0 0 24 24" fill="none" xmlns="http://www.w3.org/2000/svg">
<path d="M12.0199 13.0725C12.4284 13.0725 12.8071 12.8961 13.2455 12.4875L21.9139 4.49216C21.5453 4.15786 20.8578 4 19.8714 4H3.82971C2.99275 4 2.40489 4.14858 2.07609 4.45502L10.7944 12.4875C11.2228 12.8868 11.6014 13.0725 12.0199 13.0725ZM1.24909 18.5049L8.29348 12.0139L1.22917 5.52293C1.07971 5.78294 1 6.22867 1 6.86941V17.1213C1 17.7806 1.07971 18.2449 1.24909 18.5049ZM22.7609 18.4956C22.9203 18.2263 23 17.7713 23 17.1213V6.86941C23 6.24724 22.9203 5.80151 22.7808 5.55078L15.7364 12.0139L22.7609 18.4956ZM4.12862 20H20.1703C21.0072 20 21.5851 19.8514 21.9139 19.5543L14.7301 12.924L14.0725 13.5461C13.385 14.159 12.7373 14.4376 12.0199 14.4376C11.2926 14.4376 10.6449 14.159 9.96739 13.5461L9.29982 12.924L2.13587 19.545C2.51449 19.8514 3.1721 20 4.12862 20Z" fill="white"/>
</svg>
