<svg width="25" height="24" viewBox="0 0 25 24" fill="none" xmlns="http://www.w3.org/2000/svg">
<path d="M7 21C5.59554 21 4.89331 21 4.38886 20.6629C4.17048 20.517 3.98298 20.3295 3.83706 20.1111C3.5 19.6067 3.5 18.9045 3.5 17.5L3.5 6.5C3.5 5.09554 3.5 4.39331 3.83706 3.88886C3.98298 3.67048 4.17048 3.48298 4.38886 3.33706C4.89331 3 5.59554 3 7 3V3C8.40446 3 9.10669 3 9.61114 3.33706C9.82952 3.48298 10.017 3.67048 10.1629 3.88886C10.5 4.39331 10.5 5.09554 10.5 6.5L10.5 17.5C10.5 18.9045 10.5 19.6067 10.1629 20.1111C10.017 20.3295 9.82952 20.517 9.61114 20.6629C9.10669 21 8.40446 21 7 21V21Z" stroke="#1380FF" stroke-width="2"/>
<path d="M18 10C16.5955 10 15.8933 10 15.3889 9.66294C15.1705 9.51702 14.983 9.32952 14.8371 9.11114C14.5 8.60669 14.5 7.90446 14.5 6.5V6.5C14.5 5.09554 14.5 4.39331 14.8371 3.88886C14.983 3.67048 15.1705 3.48298 15.3889 3.33706C15.8933 3 16.5955 3 18 3V3C19.4045 3 20.1067 3 20.6111 3.33706C20.8295 3.48298 21.017 3.67048 21.1629 3.88886C21.5 4.39331 21.5 5.09554 21.5 6.5V6.5C21.5 7.90446 21.5 8.60669 21.1629 9.11114C21.017 9.32952 20.8295 9.51702 20.6111 9.66294C20.1067 10 19.4045 10 18 10V10Z" stroke="#1380FF" stroke-width="2"/>
<path d="M14.5 17.5C14.5 16.0955 14.5 15.3933 14.8371 14.8889C14.983 14.6705 15.1705 14.483 15.3889 14.3371C15.8933 14 16.5955 14 18 14V14C19.4045 14 20.1067 14 20.6111 14.3371C20.8295 14.483 21.017 14.6705 21.1629 14.8889C21.5 15.3933 21.5 16.0955 21.5 17.5V17.5C21.5 18.9045 21.5 19.6067 21.1629 20.1111C21.017 20.3295 20.8295 20.517 20.6111 20.6629C20.1067 21 19.4045 21 18 21V21C16.5955 21 15.8933 21 15.3889 20.6629C15.1705 20.517 14.983 20.3295 14.8371 20.1111C14.5 19.6067 14.5 18.9045 14.5 17.5V17.5Z" stroke="#1380FF" stroke-width="2"/>
</svg>
