<svg width="18" height="18" viewBox="0 0 18 18" fill="none" xmlns="http://www.w3.org/2000/svg">
<path d="M8.9985 5.53125C7.083 5.53125 5.53125 7.08375 5.53125 8.9985C5.53125 10.914 7.083 12.4665 8.9985 12.4665C10.9125 12.4665 12.4657 10.914 12.4657 8.9985C12.4657 7.08375 10.9125 5.53125 8.9985 5.53125ZM8.9985 11.2515C7.75425 11.2515 6.7455 10.2428 6.7455 8.99925C6.7455 7.755 7.75425 6.747 8.9985 6.747C10.2427 6.747 11.25 7.755 11.25 8.99925C11.25 10.2428 10.2427 11.2515 8.9985 11.2515Z" fill="white"/>
<path d="M12.6054 6.21368C13.0519 6.21368 13.4139 5.8517 13.4139 5.40518C13.4139 4.95866 13.0519 4.59668 12.6054 4.59668C12.1589 4.59668 11.7969 4.95866 11.7969 5.40518C11.7969 5.8517 12.1589 6.21368 12.6054 6.21368Z" fill="white"/>
<path d="M15.4002 4.58316C15.0485 3.67641 14.3322 2.95941 13.4255 2.60916C12.9012 2.41191 12.347 2.30616 11.786 2.29416C11.0637 2.26266 10.835 2.25366 9.00345 2.25366C7.17195 2.25366 6.9372 2.25366 6.22095 2.29416C5.66145 2.30541 5.1072 2.41116 4.58295 2.60916C3.67545 2.95941 2.9592 3.67641 2.6082 4.58316C2.41095 5.10816 2.3052 5.66166 2.29395 6.22266C2.2617 6.94416 2.25195 7.17291 2.25195 9.00516C2.25195 10.8367 2.25195 11.0699 2.29395 11.7877C2.3052 12.3487 2.41095 12.9022 2.6082 13.4279C2.95995 14.3339 3.6762 15.0509 4.5837 15.4019C5.1057 15.6059 5.65995 15.7214 6.22245 15.7394C6.9447 15.7709 7.17345 15.7807 9.00495 15.7807C10.8365 15.7807 11.0712 15.7807 11.7875 15.7394C12.3477 15.7282 12.902 15.6217 13.427 15.4252C14.3337 15.0734 15.05 14.3572 15.4017 13.4504C15.599 12.9254 15.7047 12.3719 15.716 11.8109C15.7482 11.0894 15.758 10.8607 15.758 9.02841C15.758 7.19616 15.758 6.96366 15.716 6.24591C15.7062 5.67741 15.6012 5.11416 15.4002 4.58316ZM14.4867 11.7322C14.4815 12.1642 14.4035 12.5924 14.2535 12.9982C14.0247 13.5884 13.559 14.0549 12.9695 14.2814C12.5682 14.4307 12.1452 14.5087 11.717 14.5147C11.0045 14.5477 10.8035 14.5559 8.97645 14.5559C7.14795 14.5559 6.9612 14.5559 6.2352 14.5147C5.80845 14.5094 5.38395 14.4307 4.98345 14.2814C4.3917 14.0557 3.92295 13.5892 3.6942 12.9982C3.5472 12.5977 3.4677 12.1739 3.46095 11.7464C3.4287 11.0339 3.4212 10.8329 3.4212 9.00591C3.4212 7.17816 3.4212 6.99141 3.46095 6.26466C3.4662 5.83266 3.5442 5.40516 3.6942 4.99941C3.92295 4.40766 4.3917 3.94191 4.98345 3.71541C5.38395 3.56691 5.80845 3.48816 6.2352 3.48216C6.94845 3.44991 7.1487 3.44091 8.97645 3.44091C10.8042 3.44091 10.9917 3.44091 11.717 3.48216C12.1452 3.48741 12.5682 3.56616 12.9695 3.71541C13.559 3.94266 14.0247 4.40916 14.2535 4.99941C14.4005 5.39991 14.48 5.82366 14.4867 6.25116C14.519 6.96441 14.5272 7.16466 14.5272 8.99241C14.5272 10.8194 14.5272 11.0159 14.495 11.7329H14.4867V11.7322Z" fill="white"/>
</svg>
