<svg width="28" height="28" viewBox="0 0 28 28" fill="none" xmlns="http://www.w3.org/2000/svg">
<rect width="28" height="28" rx="4" fill="white" fill-opacity="0.1"/>
<path d="M13.9995 10.5312C12.084 10.5312 10.5322 12.0838 10.5322 13.9985C10.5322 15.914 12.084 17.4665 13.9995 17.4665C15.9135 17.4665 17.4667 15.914 17.4667 13.9985C17.4667 12.0838 15.9135 10.5312 13.9995 10.5312ZM13.9995 16.2515C12.7552 16.2515 11.7465 15.2428 11.7465 13.9993C11.7465 12.755 12.7552 11.747 13.9995 11.747C15.2437 11.747 16.251 12.755 16.251 13.9993C16.251 15.2428 15.2437 16.2515 13.9995 16.2515Z" fill="white"/>
<path d="M17.6044 11.2137C18.0509 11.2137 18.4129 10.8517 18.4129 10.4052C18.4129 9.95866 18.0509 9.59668 17.6044 9.59668C17.1579 9.59668 16.7959 9.95866 16.7959 10.4052C16.7959 10.8517 17.1579 11.2137 17.6044 11.2137Z" fill="white"/>
<path d="M20.4002 9.58316C20.0485 8.67641 19.3322 7.95941 18.4255 7.60916C17.9012 7.41191 17.347 7.30616 16.786 7.29416C16.0637 7.26266 15.835 7.25366 14.0035 7.25366C12.172 7.25366 11.9372 7.25366 11.221 7.29416C10.6615 7.30541 10.1072 7.41116 9.58295 7.60916C8.67545 7.95941 7.9592 8.67641 7.6082 9.58316C7.41095 10.1082 7.3052 10.6617 7.29395 11.2227C7.2617 11.9442 7.25195 12.1729 7.25195 14.0052C7.25195 15.8367 7.25195 16.0699 7.29395 16.7877C7.3052 17.3487 7.41095 17.9022 7.6082 18.4279C7.95995 19.3339 8.6762 20.0509 9.5837 20.4019C10.1057 20.6059 10.66 20.7214 11.2225 20.7394C11.9447 20.7709 12.1735 20.7807 14.005 20.7807C15.8365 20.7807 16.0712 20.7807 16.7875 20.7394C17.3477 20.7282 17.902 20.6217 18.427 20.4252C19.3337 20.0734 20.05 19.3572 20.4017 18.4504C20.599 17.9254 20.7047 17.3719 20.716 16.8109C20.7482 16.0894 20.758 15.8607 20.758 14.0284C20.758 12.1962 20.758 11.9637 20.716 11.2459C20.7062 10.6774 20.6012 10.1142 20.4002 9.58316ZM19.4867 16.7322C19.4815 17.1642 19.4035 17.5924 19.2535 17.9982C19.0247 18.5884 18.559 19.0549 17.9695 19.2814C17.5682 19.4307 17.1452 19.5087 16.717 19.5147C16.0045 19.5477 15.8035 19.5559 13.9765 19.5559C12.148 19.5559 11.9612 19.5559 11.2352 19.5147C10.8085 19.5094 10.384 19.4307 9.98345 19.2814C9.3917 19.0557 8.92295 18.5892 8.6942 17.9982C8.5472 17.5977 8.4677 17.1739 8.46095 16.7464C8.4287 16.0339 8.4212 15.8329 8.4212 14.0059C8.4212 12.1782 8.4212 11.9914 8.46095 11.2647C8.4662 10.8327 8.5442 10.4052 8.6942 9.99941C8.92295 9.40766 9.3917 8.94191 9.98345 8.71541C10.384 8.56691 10.8085 8.48816 11.2352 8.48216C11.9485 8.44991 12.1487 8.44091 13.9765 8.44091C15.8042 8.44091 15.9917 8.44091 16.717 8.48216C17.1452 8.48741 17.5682 8.56616 17.9695 8.71541C18.559 8.94266 19.0247 9.40916 19.2535 9.99941C19.4005 10.3999 19.48 10.8237 19.4867 11.2512C19.519 11.9644 19.5272 12.1647 19.5272 13.9924C19.5272 15.8194 19.5272 16.0159 19.495 16.7329H19.4867V16.7322Z" fill="white"/>
</svg>
