<svg width="40" height="40" viewBox="0 0 40 40" fill="none" xmlns="http://www.w3.org/2000/svg">
<rect width="40" height="40" rx="20" fill="white" fill-opacity="0.12"/>
<path fill-rule="evenodd" clip-rule="evenodd" d="M14.4382 13.7059C13.4503 14.3394 12.6008 15.08 11.8973 15.8023C10.9926 16.731 10.302 17.6564 9.83723 18.3491C9.60423 18.6963 9.42638 18.9875 9.30531 19.1947C9.24473 19.2983 9.19826 19.3811 9.1661 19.4396C9.15001 19.4689 9.13749 19.4921 9.12857 19.5088L9.11788 19.5289L9.11456 19.5352L9.11341 19.5374L9.11296 19.5383C9.11277 19.5387 9.11259 19.539 10 20L9.11259 19.539C8.96247 19.828 8.96247 20.172 9.11259 20.461L10 20C9.11259 20.461 9.11277 20.4613 9.11296 20.4617L9.11341 20.4626L9.11456 20.4648L9.11788 20.4711L9.12857 20.4912C9.13749 20.5079 9.15001 20.5311 9.1661 20.5604C9.19826 20.6189 9.24473 20.7017 9.30531 20.8053C9.42638 21.0125 9.60423 21.3037 9.83723 21.6509C10.302 22.3436 10.9926 23.269 11.8973 24.1977C13.691 26.0393 16.4335 28 20 28C22.5924 28 24.7494 26.9641 26.4232 25.691L24.9941 24.2619C23.6099 25.2642 21.9339 26 20 26C17.2029 26 14.9454 24.4607 13.33 22.8023C12.5301 21.981 11.9139 21.1564 11.498 20.5366C11.3605 20.3317 11.2456 20.1502 11.1539 20C11.2456 19.8498 11.3605 19.6683 11.498 19.4634C11.9139 18.8436 12.5301 18.019 13.33 17.1977C14.0571 16.4512 14.9144 15.7288 15.8924 15.1601L14.4382 13.7059ZM17.5613 16.8291C16.6118 17.5605 16 18.7088 16 20C16 22.2091 17.7909 24 20 24C21.2912 24 22.4395 23.3882 23.1709 22.4387L21.7324 21.0001C21.3865 21.5979 20.7402 22 20 22C18.8954 22 18 21.1046 18 20C18 19.2598 18.4021 18.6135 18.9999 18.2676L17.5613 16.8291ZM20.2772 16.0095L23.9905 19.7228C23.8544 17.7346 22.2654 16.1456 20.2772 16.0095ZM26.8655 22.5977C27.5709 21.8455 28.1206 21.1049 28.502 20.5366C28.6395 20.3317 28.7544 20.1502 28.8461 20C28.7544 19.8498 28.6395 19.6683 28.502 19.4634C28.0861 18.8436 27.4699 18.019 26.67 17.1977C25.0546 15.5393 22.7971 14 20 14C19.4566 14 18.9336 14.0581 18.4316 14.1639L16.81 12.5423C17.7848 12.204 18.8495 12 20 12C23.5665 12 26.309 13.9607 28.1027 15.8023C29.0074 16.731 29.698 17.6564 30.1628 18.3491C30.3958 18.6963 30.5736 18.9875 30.6947 19.1947C30.7553 19.2983 30.8017 19.3811 30.8339 19.4396C30.85 19.4689 30.8625 19.4921 30.8714 19.5088L30.8821 19.5289L30.8854 19.5352L30.8866 19.5374L30.887 19.5383C30.8872 19.5387 30.8874 19.539 30 20C30.8874 20.461 30.8872 20.4613 30.887 20.4617L30.8866 20.4626L30.8854 20.4648L30.8821 20.4711L30.8714 20.4912C30.8625 20.5079 30.85 20.5311 30.8339 20.5604C30.8017 20.6189 30.7553 20.7017 30.6947 20.8053C30.5736 21.0125 30.3958 21.3037 30.1628 21.6509C29.7289 22.2976 29.0982 23.1469 28.2803 24.0126L26.8655 22.5977ZM30 20L30.8874 19.539C31.0375 19.828 31.0375 20.172 30.8874 20.461L30 20Z" fill="white"/>
<path d="M12 12L28 28" stroke="white" stroke-width="2" stroke-linecap="round"/>
</svg>
