<svg width="24" height="24" viewBox="0 0 24 24" fill="none" xmlns="http://www.w3.org/2000/svg">
<path d="M7 10V20M7 10H7.76393C8.52148 10 9.214 9.572 9.55279 8.89443L12.5734 2.85317C12.8349 2.33029 13.3693 2 13.9539 2V2C14.9793 2 15.7196 2.98145 15.4379 3.9674L14 9H18.9945C20.2779 9 21.2292 10.1917 20.9447 11.4432L20.7045 12.5L19.8523 16.25L19.3538 18.4432C19.1469 19.3538 18.3373 20 17.4035 20H7M7 10V9.5H4C3.44772 9.5 3 9.94772 3 10.5V19.5C3 20.0523 3.44772 20.5 4 20.5H7V20" stroke="#B3B3B8" stroke-width="2" stroke-linecap="round" stroke-linejoin="round"/>
</svg>
