<svg width="18" height="18" viewBox="0 0 18 18" fill="none" xmlns="http://www.w3.org/2000/svg">
<path d="M3.7367 5.39919C4.643 5.39919 5.3777 4.66449 5.3777 3.75819C5.3777 2.85189 4.643 2.11719 3.7367 2.11719C2.8304 2.11719 2.0957 2.85189 2.0957 3.75819C2.0957 4.66449 2.8304 5.39919 3.7367 5.39919Z" fill="white"/>
<path d="M6.92681 6.63906V15.7433H9.75356V11.2411C9.75356 10.0531 9.97706 8.90256 11.4501 8.90256C12.9028 8.90256 12.9208 10.2608 12.9208 11.3161V15.7441H15.7491V10.7513C15.7491 8.29881 15.2211 6.41406 12.3546 6.41406C10.9783 6.41406 10.0558 7.16931 9.67856 7.88406H9.64031V6.63906H6.92681ZM2.32031 6.63906H5.15156V15.7433H2.32031V6.63906Z" fill="white"/>
</svg>
