<svg width="24" height="24" viewBox="0 0 24 24" fill="none" xmlns="http://www.w3.org/2000/svg">
<path d="M17.3 17C18.4201 17 18.9802 17 19.408 16.782C19.7843 16.5903 20.0903 16.2843 20.282 15.908C20.5 15.4802 20.5 14.9201 20.5 13.8V8.2C20.5 7.0799 20.5 6.51984 20.282 6.09202C20.0903 5.71569 19.7843 5.40973 19.408 5.21799C18.9802 5 18.4201 5 17.3 5H6.7C5.57989 5 5.01984 5 4.59202 5.21799C4.21569 5.40973 3.90973 5.71569 3.71799 6.09202C3.5 6.51984 3.5 7.07989 3.5 8.2V13.8C3.5 14.9201 3.5 15.4802 3.71799 15.908C3.90973 16.2843 4.21569 16.5903 4.59202 16.782C5.01984 17 5.57989 17 6.7 17H7.5V20.6464C7.5 20.8417 7.65829 21 7.85355 21V21C7.94732 21 8.03725 20.9628 8.10355 20.8964L12 17H17.3Z" stroke="#B3B3B8" stroke-width="2" stroke-linecap="round" stroke-linejoin="round"/>
<path d="M7.5 13L14 13" stroke="#B3B3B8" stroke-width="2" stroke-linecap="round"/>
<path d="M7.5 9L16.5 9" stroke="#B3B3B8" stroke-width="2" stroke-linecap="round"/>
</svg>
