<svg width="40" height="40" viewBox="0 0 40 40" fill="none" xmlns="http://www.w3.org/2000/svg">
<path d="M9.16699 1.66669C7.78628 1.66669 6.66699 2.78597 6.66699 4.16669V35.8334C6.66699 37.2141 7.78628 38.3334 9.16699 38.3334H30.8337C32.2144 38.3334 33.3337 37.2141 33.3337 35.8334V11.6667L23.3337 1.66669H9.16699Z" fill="#F4B70A"/>
<path d="M9.16699 38.3334C7.78628 38.3334 6.66699 37.2141 6.66699 35.8334V35.4167C6.66699 36.7974 7.78628 37.9167 9.16699 37.9167H30.8337C32.2144 37.9167 33.3337 36.7974 33.3337 35.4167V35.8334C33.3337 37.2141 32.2144 38.3334 30.8337 38.3334H9.16699Z" fill="#EFA904"/>
<path d="M9.16699 1.66669C7.78628 1.66669 6.66699 2.78598 6.66699 4.16669V4.58335C6.66699 3.20264 7.78628 2.08335 9.16699 2.08335H23.7503L23.3337 1.66669H9.16699Z" fill="#F6C028"/>
<path d="M33.3332 20.2083V11.6666L31.8749 10.2083H24.8421C24.2853 10.2083 24.0064 10.8815 24.4001 11.2753L33.3332 20.2083Z" fill="url(#paint0_linear_3576_80101)"/>
<path d="M23.333 1.66669L33.333 11.6667H25.833C24.4523 11.6667 23.333 10.5474 23.333 9.16669V1.66669Z" fill="#FADC87"/>
<path fill-rule="evenodd" clip-rule="evenodd" d="M14.1663 18.3333C13.7061 18.3333 13.333 18.7064 13.333 19.1666V30.8333C13.333 31.2936 13.7061 31.6666 14.1663 31.6666H25.833C26.2932 31.6666 26.6663 31.2936 26.6663 30.8333V19.1666C26.6663 18.7064 26.2932 18.3333 25.833 18.3333H14.1663ZM24.9997 22.0833H14.9997V27.9166H24.9997V22.0833Z" fill="white"/>
<defs>
<linearGradient id="paint0_linear_3576_80101" x1="28.7745" y1="20.2083" x2="28.7745" y2="9.99998" gradientUnits="userSpaceOnUse">
<stop stop-color="#F4B70A"/>
<stop offset="1" stop-color="#E2930A"/>
</linearGradient>
</defs>
</svg>
